<?xml version="1.0"?>
<svg xmlns="http://www.w3.org/2000/svg" xmlns:xlink="http://www.w3.org/1999/xlink" data-noselect="" viewBox="0 0 800 600" width="1600" height="1200" preserveAspectRatio="none" version="1.1"><defs/> <g id="background" data-noselect=""><rect fill="#000000" width="800" height="600" data-noselect=""/> <!----></g> <g id="shape_HkEEaC51hC" transform="translate(297.531205430635,340.579640201738) rotate(0,83.590557049525,21.352835365127) scale(1,1)" filter="" style="cursor: move; opacity: 1;"><g><svg xmlns="http://www.w3.org/2000/svg" xmlns:xlink="http://www.w3.org/1999/xlink" version="1.1" id="&#x56FE;&#x5C42;_1" x="0px" y="0px" width="167.18111409905" height="42.705670730254" viewBox="0 0 101 25.8" style="enable-background:new 0 0 101 25.8;" xml:space="preserve" class="style-removed" preserveAspectRatio="none" data-parent="shape_HkEEaC51hC">

<g>
	<path d="M100.2,0c-1.1,0-2.1,0.5-2.8,1.2c-0.6,0.6-1.2,1.2-1.8,1.8c-0.5,0.4-0.9,0.9-1.4,1.3L69.6,4.3l16,3.3v1.2   L64.6,9l14.8,2.5v1.5L58.8,13l14.1,1.9v0.9c0,0,0,0,0,0c-4.1,1-8.4,1.6-12.9,1.6c-6.6,0-12.9-1.2-18.7-3.5   c-1.1,0.7-2.3,1.5-3.5,2.3c6.7,3.3,14.2,5.2,22.2,5.2c15.5,0,29.4-7.1,38.8-18.4c0.8-1,1.6-2,2.4-3.1H100.2z" fill="#F1CAAC" stroke-width="0"/>
	<path d="M53.6,0h-1.3c-1.6,0-3.2,0.5-4.6,1.5C47,2,46.2,2.5,45.5,3.1c-4,2.8-7.9,5.2-11.5,7.3   c-3.5-2.1-6.8-4.5-9.6-7.3c-0.6-0.6-1.2-1.2-1.8-1.9C21.8,0.4,20.8,0,19.7,0h-0.9c0.7,1.1,1.5,2.1,2.4,3.1c2.8,3.4,6.1,6.5,9.7,9.1   c-12,6.5-21,8.9-23.9,5.5C4.7,15.2,6,10,10,3.1c0.6-1,1.2-2,1.9-3.1h-1.1c-1.2,0-2.3,0.6-3,1.6c-0.3,0.5-0.6,1-0.9,1.5   C0.6,13.1-1.7,20.7,1.3,24c4,4.4,16.4,0.2,32.5-10c1-0.7,2.1-1.3,3.2-2c4-2.7,8.3-5.7,12.7-8.9C51,2.1,52.3,1.1,53.6,0z" fill="#F1CAAC" stroke-width="0"/>
</g>
</svg></g></g><g id="shape_xO7yRTtfir" transform="translate(327.999957596825,216.714689068008) rotate(0,85.778057049525,18.808757838785) scale(1,1)" filter="" style="cursor: move; opacity: 1;"><g><svg xmlns="http://www.w3.org/2000/svg" xmlns:xlink="http://www.w3.org/1999/xlink" version="1.1" id="&#x56FE;&#x5C42;_1" x="0px" y="0px" width="171.55611409905" height="37.61751567757" viewBox="0 0 101.7 22.3" style="enable-background:new 0 0 101.7 22.3;" xml:space="preserve" preserveAspectRatio="none" class="style-removed" data-parent="shape_xO7yRTtfir">

<path d="M100.4,1.8c-3.9-4.3-15.8-0.6-31.3,8.8c-8.2-5.7-18-9-28.6-9C24,1.6,9.3,9.7,0,22.3h1.3c1,0,2-0.4,2.7-1.1  c1.2-1.2,2.4-2.4,3.7-3.5c0,0,0,0,0,0l24.6,0.1l-16-3.3v-1.2l21-0.1l-14.8-2.5V9.1l20.7-0.1L29.1,7.2V7.1c3.7-0.8,7.6-1.3,11.6-1.3  c9.3,0,18,2.4,25.5,6.7l0,0l0,0c1.1,0.6,2.2,1.3,3.2,2l0,0c3,2,5.7,4.3,8.2,6.8c0.6,0.6,1.4,1,2.2,1h1.4c-2.6-3.5-5.6-6.7-8.9-9.4  l0,0c11-5.9,19.2-7.9,22-4.7c2.1,2.4,1,7.4-2.7,14.1h2c0.9,0,1.7-0.5,2.2-1.2C101.3,11.9,103.3,4.9,100.4,1.8z" fill="#f1caac" stroke-width="0"/>
</svg></g></g><g id="shape_q9VpPOvEzA" transform="translate(195.4,266.73962791743804) rotate(0,140.16450379244,54.34) scale(1,1)" filter="" style="cursor: move; opacity: 1;"><g><svg xmlns="http://www.w3.org/2000/svg" xmlns:xlink="http://www.w3.org/1999/xlink" version="1.1" width="409.20000000000005" height="108.68" viewBox="0 0 409.20000000000005 108.68" data-parent="shape_q9VpPOvEzA"><g data-width="341.94338523774695" transform="translate(33.628307381126525, 0)"><path d="M14.78-21.74L20.73 0L13.91 0L13.31-3.60L13.27-3.70L9.98-3.76L7.22-3.63L6.65 0L0.07 0L6.65-21.74L14.78-21.74ZM10.38-8.57L12.26-8.60L10.79-15.72L10.38-15.72L8.50-8.60L10.38-8.57Z" transform="translate(0 63.84) " fill="rgb(241, 202, 172)" stroke="rgb(241, 202, 172)" stroke-linecap="square" stroke-linejoin="square" stroke-width="0.056" data-glyph-w="21.600622661043936" data-glyph-h="40.32000000000001" data-glyph-ascender="30.240000000000006" data-glyph-descender="-10.080000000000002"/><path d="M16.87-21.74L17.24-21.27L16.87-16.36L12.43-16.56L12.03-16.56L11.86-7.06L12.13 0L5.41 0L5.75-6.38L5.58-16.56L5.14-16.56L0.67-16.36L0.27-16.83L0.64-21.74L16.87-21.74Z" transform="translate(21.600622661043936 63.84) " fill="rgb(241, 202, 172)" stroke="rgb(241, 202, 172)" stroke-linecap="square" stroke-linejoin="square" stroke-width="0.056" data-glyph-w="17.971822661043934" data-glyph-h="40.32000000000001" data-glyph-ascender="30.240000000000006" data-glyph-descender="-10.080000000000002"/><path d="M16.87-21.74L17.24-21.27L16.87-16.36L12.43-16.56L12.03-16.56L11.86-7.06L12.13 0L5.41 0L5.75-6.38L5.58-16.56L5.14-16.56L0.67-16.36L0.27-16.83L0.64-21.74L16.87-21.74Z" transform="translate(39.57244532208787 63.84) " fill="rgb(241, 202, 172)" stroke="rgb(241, 202, 172)" stroke-linecap="square" stroke-linejoin="square" stroke-width="0.056" data-glyph-w="17.971822661043934" data-glyph-h="40.32000000000001" data-glyph-ascender="30.240000000000006" data-glyph-descender="-10.080000000000002"/><path d="M14.78-21.74L20.73 0L13.91 0L13.31-3.60L13.27-3.70L9.98-3.76L7.22-3.63L6.65 0L0.07 0L6.65-21.74L14.78-21.74ZM10.38-8.57L12.26-8.60L10.79-15.72L10.38-15.72L8.50-8.60L10.38-8.57Z" transform="translate(57.5442679831318 63.84) " fill="rgb(241, 202, 172)" stroke="rgb(241, 202, 172)" stroke-linecap="square" stroke-linejoin="square" stroke-width="0.056" data-glyph-w="21.600622661043936" data-glyph-h="40.32000000000001" data-glyph-ascender="30.240000000000006" data-glyph-descender="-10.080000000000002"/><path d="M11.83-22.11Q14.72-22.11 17.27-21.20L17.27-21.20L16.13-15.86L15.69-15.59Q14.82-16.06 13.68-16.35Q12.53-16.63 11.56-16.63L11.56-16.63Q9.51-16.63 8.60-15.44Q7.69-14.25 7.69-11.46L7.69-11.46Q7.69-8.20 8.74-6.70Q9.78-5.21 12.00-5.21L12.00-5.21Q12.94-5.21 14.10-5.39Q15.25-5.58 16.13-5.91L16.13-5.91L16.67-5.58L16.13-0.27Q14.11 0.37 11.46 0.37L11.46 0.37Q6.05 0.37 3.31-2.45Q0.57-5.28 0.57-10.68L0.57-10.68Q0.57-16.13 3.51-19.12Q6.45-22.11 11.83-22.11L11.83-22.11Z" transform="translate(79.14489064417575 63.84) " fill="rgb(241, 202, 172)" stroke="rgb(241, 202, 172)" stroke-linecap="square" stroke-linejoin="square" stroke-width="0.056" data-glyph-w="17.803822661043935" data-glyph-h="40.32000000000001" data-glyph-ascender="30.240000000000006" data-glyph-descender="-10.080000000000002"/><path d="M14.68-11.46Q17.77-6.62 21.74-1.41L21.74-1.41L21.64-0.67Q18.11 0.10 14.92 0.40L14.92 0.40L14.18 0Q10.75-5.88 8.57-9.98L8.57-9.98L8.50-7.06L8.77 0L2.02 0L2.35-6.38L2.02-21.74L8.87-21.74L8.64-12.67L12.80-19.39L13.94-21.74L21.07-21.74L14.68-11.46Z" transform="translate(96.94871330521968 63.84) " fill="rgb(241, 202, 172)" stroke="rgb(241, 202, 172)" stroke-linecap="square" stroke-linejoin="square" stroke-width="0.056" data-glyph-w="21.634222661043935" data-glyph-h="40.32000000000001" data-glyph-ascender="30.240000000000006" data-glyph-descender="-10.080000000000002"/><path d="" transform="translate(118.58293596626362 63.84) " fill="rgb(241, 202, 172)" stroke="rgb(241, 202, 172)" stroke-linecap="square" stroke-linejoin="square" stroke-width="0.056" data-glyph-w="13.906222661043934" data-glyph-h="33.6" data-glyph-ascender="29.568000000000005" data-glyph-descender="-4.032000000000001"/><path d="M11.46-22.14Q16.20-22.14 18.78-19.34Q21.37-16.53 21.37-11.42L21.37-11.42Q21.37-5.78 18.53-2.69Q15.69 0.40 10.48 0.40L10.48 0.40Q5.75 0.40 3.16-2.44Q0.57-5.28 0.57-10.48L0.57-10.48Q0.57-16.06 3.41-19.10Q6.25-22.14 11.46-22.14L11.46-22.14ZM10.85-16.77Q9.54-16.77 8.87-16.31Q8.20-15.86 7.91-14.72Q7.63-13.57 7.63-11.39L7.63-11.39Q7.63-8.60 7.93-7.16Q8.23-5.71 8.95-5.14Q9.68-4.57 11.09-4.57L11.09-4.57Q12.40-4.57 13.07-5.02Q13.74-5.48 14.03-6.64Q14.31-7.80 14.31-9.98L14.31-9.98Q14.31-12.73 14.01-14.18Q13.71-15.62 12.99-16.20Q12.26-16.77 10.85-16.77L10.85-16.77Z" transform="translate(132.48915862730755 63.84) " fill="rgb(241, 202, 172)" stroke="rgb(241, 202, 172)" stroke-linecap="square" stroke-linejoin="square" stroke-width="0.056" data-glyph-w="22.474222661043935" data-glyph-h="40.32000000000001" data-glyph-ascender="30.240000000000006" data-glyph-descender="-10.080000000000002"/><path d="M21.84-21.87L21.47-7.09L21.74 0L14.41 0L8.30-11.63L7.90-11.63L7.86-7.86L8.13 0L2.02 0L2.35-6.38L2.02-21.74L9.34-21.74L15.46-10.11L15.86-10.11L15.66-21.50L21.84-21.87Z" transform="translate(154.96338128835148 63.84) " fill="rgb(241, 202, 172)" stroke="rgb(241, 202, 172)" stroke-linecap="square" stroke-linejoin="square" stroke-width="0.056" data-glyph-w="24.389422661043938" data-glyph-h="40.32000000000001" data-glyph-ascender="30.240000000000006" data-glyph-descender="-10.080000000000002"/><path d="" transform="translate(179.35280394939542 63.84) " fill="rgb(241, 202, 172)" stroke="rgb(241, 202, 172)" stroke-linecap="square" stroke-linejoin="square" stroke-width="0.056" data-glyph-w="13.906222661043934" data-glyph-h="33.6" data-glyph-ascender="29.568000000000005" data-glyph-descender="-4.032000000000001"/><path d="M16.26-11.19Q18.38-10.58 19.34-9.39Q20.29-8.20 20.29-6.28L20.29-6.28Q20.29-2.89 17.52-1.33Q14.75 0.24 9.24 0.24L9.24 0.24Q6.18 0.24 2.02 0L2.02 0L2.35-6.38L2.02-21.74L11.73-21.77Q15.42-21.77 17.51-20.34Q19.59-18.92 19.59-16.20L19.59-16.20Q19.59-14.52 18.73-13.22Q17.88-11.93 16.26-11.19L16.26-11.19ZM12.73-15.22Q12.73-16.40 11.91-16.85Q11.09-17.30 8.84-17.30L8.84-17.30L8.53-17.30L8.40-12.87L10.92-12.77Q11.86-13.07 12.30-13.64Q12.73-14.21 12.73-15.22L12.73-15.22ZM10.52-4.20Q11.89-4.20 12.68-4.80Q13.47-5.41 13.47-6.55L13.47-6.55Q13.47-7.32 13.02-7.80Q12.57-8.27 11.56-8.60L11.56-8.60L8.30-8.53L8.27-7.06L8.37-4.33Q10.05-4.20 10.52-4.20L10.52-4.20Z" transform="translate(193.25902661043935 63.84) " fill="rgb(241, 202, 172)" stroke="rgb(241, 202, 172)" stroke-linecap="square" stroke-linejoin="square" stroke-width="0.056" data-glyph-w="21.667822661043935" data-glyph-h="40.32000000000001" data-glyph-ascender="30.240000000000006" data-glyph-descender="-10.080000000000002"/><path d="M14.78-21.74L20.73 0L13.91 0L13.31-3.60L13.27-3.70L9.98-3.76L7.22-3.63L6.65 0L0.07 0L6.65-21.74L14.78-21.74ZM10.38-8.57L12.26-8.60L10.79-15.72L10.38-15.72L8.50-8.60L10.38-8.57Z" transform="translate(214.9268492714833 63.84) " fill="rgb(241, 202, 172)" stroke="rgb(241, 202, 172)" stroke-linecap="square" stroke-linejoin="square" stroke-width="0.056" data-glyph-w="21.600622661043936" data-glyph-h="40.32000000000001" data-glyph-ascender="30.240000000000006" data-glyph-descender="-10.080000000000002"/><path d="M11.83-22.11Q14.72-22.11 17.27-21.20L17.27-21.20L16.13-15.86L15.69-15.59Q14.82-16.06 13.68-16.35Q12.53-16.63 11.56-16.63L11.56-16.63Q9.51-16.63 8.60-15.44Q7.69-14.25 7.69-11.46L7.69-11.46Q7.69-8.20 8.74-6.70Q9.78-5.21 12.00-5.21L12.00-5.21Q12.94-5.21 14.10-5.39Q15.25-5.58 16.13-5.91L16.13-5.91L16.67-5.58L16.13-0.27Q14.11 0.37 11.46 0.37L11.46 0.37Q6.05 0.37 3.31-2.45Q0.57-5.28 0.57-10.68L0.57-10.68Q0.57-16.13 3.51-19.12Q6.45-22.11 11.83-22.11L11.83-22.11Z" transform="translate(236.52747193252722 63.84) " fill="rgb(241, 202, 172)" stroke="rgb(241, 202, 172)" stroke-linecap="square" stroke-linejoin="square" stroke-width="0.056" data-glyph-w="17.803822661043935" data-glyph-h="40.32000000000001" data-glyph-ascender="30.240000000000006" data-glyph-descender="-10.080000000000002"/><path d="M14.68-11.46Q17.77-6.62 21.74-1.41L21.74-1.41L21.64-0.67Q18.11 0.10 14.92 0.40L14.92 0.40L14.18 0Q10.75-5.88 8.57-9.98L8.57-9.98L8.50-7.06L8.77 0L2.02 0L2.35-6.38L2.02-21.74L8.87-21.74L8.64-12.67L12.80-19.39L13.94-21.74L21.07-21.74L14.68-11.46Z" transform="translate(254.33129459357116 63.84) " fill="rgb(241, 202, 172)" stroke="rgb(241, 202, 172)" stroke-linecap="square" stroke-linejoin="square" stroke-width="0.056" data-glyph-w="21.634222661043935" data-glyph-h="40.32000000000001" data-glyph-ascender="30.240000000000006" data-glyph-descender="-10.080000000000002"/><path d="M11.79-5.17L17.37-5.38L17.74-4.91L17.34 0L2.02 0L2.35-6.38L2.02-21.74L17.61-21.74L17.98-21.27L17.54-16.36L12.20-16.56L8.74-16.56L8.67-13.51L12.00-13.51L15.49-13.61L15.86-13.14L15.46-8.23L11.56-8.33L8.53-8.33L8.50-7.06L8.57-5.17L11.79-5.17Z" transform="translate(275.96551725461507 63.84) " fill="rgb(241, 202, 172)" stroke="rgb(241, 202, 172)" stroke-linecap="square" stroke-linejoin="square" stroke-width="0.056" data-glyph-w="18.711022661043934" data-glyph-h="40.32000000000001" data-glyph-ascender="30.240000000000006" data-glyph-descender="-10.080000000000002"/><path d="M21.84-21.87L21.47-7.09L21.74 0L14.41 0L8.30-11.63L7.90-11.63L7.86-7.86L8.13 0L2.02 0L2.35-6.38L2.02-21.74L9.34-21.74L15.46-10.11L15.86-10.11L15.66-21.50L21.84-21.87Z" transform="translate(294.676539915659 63.84) " fill="rgb(241, 202, 172)" stroke="rgb(241, 202, 172)" stroke-linecap="square" stroke-linejoin="square" stroke-width="0.056" data-glyph-w="24.389422661043938" data-glyph-h="40.32000000000001" data-glyph-ascender="30.240000000000006" data-glyph-descender="-10.080000000000002"/><path d="M11.83-21.87Q16.63-21.87 19.20-19.27Q21.77-16.67 21.77-11.76L21.77-11.76Q21.77-5.95 18.78-2.82Q15.79 0.30 10.21 0.30L10.21 0.30Q6.72 0.30 2.02 0L2.02 0L2.35-6.38L2.02-21.74L11.83-21.87ZM11.49-4.70Q13.07-4.70 13.89-5.96Q14.72-7.22 14.72-10.11L14.72-10.11Q14.72-12.57 14.38-13.98Q14.04-15.39 13.31-16.01Q12.57-16.63 11.26-16.63L11.26-16.63Q9.98-16.63 8.74-16.50L8.74-16.50L8.50-7.06L8.57-4.97Q10.58-4.70 11.49-4.70L11.49-4.70Z" transform="translate(319.065962576703 63.84) " fill="rgb(241, 202, 172)" stroke="rgb(241, 202, 172)" stroke-linecap="square" stroke-linejoin="square" stroke-width="0.056" data-glyph-w="22.877422661043937" data-glyph-h="40.32000000000001" data-glyph-ascender="30.240000000000006" data-glyph-descender="-10.080000000000002"/></g></svg></g></g><g id="shape_tc2VIEPU6p" transform="translate(215.05000929247,196.610480924868) rotate(0,170.11377591029,84.67169828979601) scale(1,1)" filter="" style="cursor: move; opacity: 1;"><g><svg xmlns="http://www.w3.org/2000/svg" xmlns:xlink="http://www.w3.org/1999/xlink" version="1.1" width="369.9" height="169.02210000000002" viewBox="0 0 369.9 169.02210000000002" data-parent="shape_tc2VIEPU6p"><g data-width="257.37" transform="translate(56.265, 0)"><path d="M20.87-40.34L28.14-40.34L28.14-34.74L36.82-34.74L36.82-40.34L44.14-40.34L44.14-34.74L48.84-34.74L48.84-29.43L44.14-29.43L44.14-21.21L50.13-21.21L50.13-15.89L44.14-15.89L44.14-6.21L36.82-6.21L36.82-15.89L28.14-15.89L28.14-13.88L25.07-6.21L17.79-6.21L20.87-13.88L20.87-15.89L14.71-15.89L14.71-21.21L20.87-21.21L20.87-29.43L16.06-29.43L16.06-34.74L20.87-34.74L20.87-40.34ZM36.82-29.43L28.14-29.43L28.14-21.21L36.82-21.21L36.82-29.43ZM7.39 0.06L1.40 0.06L6.04-14.38L1.34-14.38L1.45-14.60L6.21-26.74L1.34-26.74L1.34-31.89L12.81-31.89L13.76-31.89L9.01-19.53L12.81-19.53L10.24-10.29L14.32-5.04L50.13-5.04L50.13 0.06L10.35 0.06L8.11-2.63L7.39 0.06ZM8.78-40.40L12.70-33.57L5.32-33.57L1.40-40.40L8.78-40.40Z" transform="translate(0 104.01105000000001) " fill="rgb(241, 202, 172)" stroke="rgb(241, 202, 172)" stroke-linecap="square" stroke-linejoin="square" stroke-width="0.093" data-glyph-w="51.474000000000004" data-glyph-h="55.95000000000001" data-glyph-ascender="48.06105000000001" data-glyph-descender="-7.888950000000001"/><path d="M1.23-26.86L21.65-26.86L21.65-31.72L1.96-31.72L1.96-37.49L21.65-37.49L21.65-40.34L29.82-40.34L29.82-37.49L49.52-37.49L49.52-31.72L29.82-31.72L29.82-26.86L50.24-26.86L50.24-21.09L29.82-21.09L29.82-5.76L40.17-5.76Q40.68-5.76 41.01-6.13Q41.35-6.49 41.35-6.99L41.35-6.99L41.35-16.39L48.90-16.39L48.90-4.20Q48.90-2.46 47.67-1.23Q46.44 0 44.70 0L44.70 0L41.35 0L2.57 0L2.57-5.37L2.57-16.39L10.24-16.39L10.24-7.05L10.24-5.76L21.65-5.76L21.65-21.09L1.23-21.09L1.23-26.86Z" transform="translate(51.474000000000004 104.01105000000001) " fill="rgb(241, 202, 172)" stroke="rgb(241, 202, 172)" stroke-linecap="square" stroke-linejoin="square" stroke-width="0.093" data-glyph-w="51.474000000000004" data-glyph-h="55.95000000000001" data-glyph-ascender="48.06105000000001" data-glyph-descender="-7.888950000000001"/><path d="M7.05-40.40L15.39-40.40L12.87-35.92L23.05-35.92L23.05-6.15Q23.05-4.87 22.58-3.75Q22.10-2.63 21.26-1.79Q20.42-0.95 19.30-0.48Q18.18 0 16.95 0L16.95 0L1.12 0L1.12-35.92L4.48-35.92L7.05-40.40ZM8.90-5.54L13.54-5.54Q14.32-5.54 14.83-6.04Q15.33-6.55 15.33-7.27L15.33-7.27L15.33-13.76L8.90-13.76L8.90-5.54ZM15.33-19.25L15.33-30.38L8.90-30.38L8.90-19.25L15.33-19.25ZM35.64-40.40L34.41-36.82L50.36-36.82L50.36-36.48L50.36-31.28L50.36-6.04Q50.36-4.76 49.85-3.64Q49.35-2.52 48.51-1.68Q47.67-0.84 46.55-0.36Q45.43 0.11 44.20 0.11L44.20 0.11L29.15 0.11L31.33-4.76L40.84-4.76Q41.57-4.76 42.07-5.26Q42.58-5.76 42.58-6.49L42.58-6.49L42.58-31.28L32.56-31.28L30.66-31.28L24.45-31.28L27.53-40.40L35.64-40.40ZM40.96-14.66L32.79-14.66L27.58-25.35L35.75-25.35L40.96-14.66Z" transform="translate(102.94800000000001 104.01105000000001) " fill="rgb(241, 202, 172)" stroke="rgb(241, 202, 172)" stroke-linecap="square" stroke-linejoin="square" stroke-width="0.093" data-glyph-w="51.474000000000004" data-glyph-h="55.95000000000001" data-glyph-ascender="48.06105000000001" data-glyph-descender="-7.888950000000001"/><path d="M47.22-22.83L47.22-6.15Q47.22-4.87 46.75-3.75Q46.27-2.63 45.43-1.79Q44.59-0.95 43.47-0.48Q42.35 0 41.07 0L41.07 0L14.94 0L14.94-22.83L47.22-22.83ZM39.44-6.66L39.44-17.96L22.72-17.96L22.72-4.87L37.71-4.87Q38.44-4.87 38.94-5.37Q39.44-5.87 39.44-6.66L39.44-6.66ZM50.36-40.40L50.36-34.86L11.64-34.86L11.64-32.95L11.64-5.99L8.90 0.11L1.12 0.11L3.86-5.99L3.86-40.40L9.79-40.40L11.64-40.40L50.36-40.40ZM14.60-26.30L14.60-31.89L47.56-31.89L47.56-26.30L14.60-26.30Z" transform="translate(154.42200000000003 104.01105000000001) " fill="rgb(241, 202, 172)" stroke="rgb(241, 202, 172)" stroke-linecap="square" stroke-linejoin="square" stroke-width="0.093" data-glyph-w="51.474000000000004" data-glyph-h="55.95000000000001" data-glyph-ascender="48.06105000000001" data-glyph-descender="-7.888950000000001"/><path d="M1.17-30.49L1.17-36.03L6.49-36.03L4.59-40.28L13.71-40.28L15.55-36.03L19.30-36.03L19.30-30.49L1.17-30.49ZM1.17-5.48L2.74-5.48L1.12-28.31L8.06-28.31L9.62-5.48L10.80-5.48L12.20-28.31L19.08-28.31L17.74-5.48L19.30-5.48L19.30 0L1.17 0L1.17-5.48ZM20.37-40.28L27.36-40.28L27.36-31.16L32.00-31.16L32.00-40.28L39.00-40.28L39.00-31.16L41.35-31.16Q42.02-31.16 42.49-31.67Q42.97-32.17 42.97-32.95L42.97-32.95L42.97-40.28L49.96-40.28L49.96-32.23Q49.96-30.05 48.56-28.51Q47.17-26.97 45.15-26.97L45.15-26.97L39.00-26.97L32.00-26.97L27.36-26.97L22.10-26.97L20.37-26.97L20.37-40.28ZM50.30-20.98L38.89-20.98L38.10-18.80L41.91-18.80L43.70-18.80L49.52-18.80L49.96-18.80L49.96-5.20Q49.96-3.02 48.56-1.51Q47.17 0 45.15 0L45.15 0L42.07 0L43.19-4.14Q43.70-4.14 43.70-4.64L43.70-4.64L43.70-14.60L41.91-14.60L41.91 0L36.20 0L36.20-14.60L34.13-14.60L34.13 0L28.42 0L28.42-14.60L26.63-14.60L26.63 0L20.37 0L20.37-14.60L20.37-16.34L20.37-18.80L28.42-18.80L31.05-18.80L31.84-20.98L19.86-20.98L19.86-25.18L50.30-25.18L50.30-20.98Z" transform="translate(205.89600000000002 104.01105000000001) " fill="rgb(241, 202, 172)" stroke="rgb(241, 202, 172)" stroke-linecap="square" stroke-linejoin="square" stroke-width="0.093" data-glyph-w="51.474000000000004" data-glyph-h="55.95000000000001" data-glyph-ascender="48.06105000000001" data-glyph-descender="-7.888950000000001"/></g></svg></g></g>  <!----></svg>
